<?xml version="1.0" standalone="no"?>
<!DOCTYPE svg PUBLIC "-//W3C//DTD SVG 20010904//EN"
 "http://www.w3.org/TR/2001/REC-SVG-20010904/DTD/svg10.dtd">
<svg version="1.0" xmlns="http://www.w3.org/2000/svg"
 width="384.000000pt" height="384.000000pt" viewBox="0 0 384.000000 384.000000"
 preserveAspectRatio="xMidYMid meet">
<metadata>
Created by potrace 1.11, written by Peter Selinger 2001-2013
</metadata>
<g transform="translate(0.000000,384.000000) scale(0.100000,-0.100000)"
fill="#000000" stroke="none">
<path d="M274 3685 c12 -304 153 -621 362 -813 188 -174 429 -250 884 -278
140 -9 500 -9 700 0 230 11 410 12 490 2 317 -35 565 -201 702 -466 44 -87 76
-166 85 -210 2 -13 6 -26 8 -28 4 -5 32 82 50 158 21 90 15 384 -9 495 -80
361 -279 593 -608 706 -60 21 -108 36 -108 35 0 -2 -30 4 -67 11 -54 12 -197
15 -697 18 -575 3 -810 8 -891 20 -73 11 -111 17 -130 19 -131 18 -337 81
-450 139 -134 67 -254 169 -301 256 l-25 46 5 -110z"/>
<path d="M272 2382 c3 -215 84 -469 214 -670 58 -88 207 -230 297 -281 115
-65 273 -115 427 -135 62 -9 108 -15 155 -21 87 -11 245 -17 590 -20 518 -6
555 -8 654 -41 93 -31 209 -101 258 -157 128 -146 157 -353 77 -536 -34 -76
-133 -170 -226 -215 -122 -58 -195 -73 -340 -71 -71 0 -128 0 -128 -1 0 -1 24
-20 54 -43 149 -112 352 -173 581 -175 256 -1 529 174 653 420 105 209 131
510 66 774 -74 297 -294 552 -590 683 -59 26 -208 69 -289 83 -22 3 -301 8
-620 10 -541 2 -792 8 -840 18 -11 2 -45 7 -75 10 -63 7 -80 10 -215 37 -115
23 -110 22 -201 44 -192 48 -412 196 -480 325 l-24 45 2 -83z"/>
</g>
</svg>
